<?xml version="1.0" encoding="UTF-8"?>
<svg width="36px" height="36px" viewBox="0 0 36 36" version="1.1" xmlns="http://www.w3.org/2000/svg" xmlns:xlink="http://www.w3.org/1999/xlink">
    <!-- Generator: Sketch 52.6 (67491) - http://www.bohemiancoding.com/sketch -->
    <title>Group 13</title>
    <desc>Created with Sketch.</desc>
    <g id="Landing" stroke="none" stroke-width="1" fill="none" fill-rule="evenodd">
        <g id="Landing.-Jan2019" transform="translate(-1021.000000, -430.000000)">
            <g id="Group-7" transform="translate(371.000000, 396.000000)">
                <g id="Group-3-Copy-2" transform="translate(650.000000, 34.000000)">
                    <g id="Group-13">
                        <circle id="Oval-3-Copy" fill="#22AFC6" cx="18" cy="18" r="18"></circle>
                        <g id="Group-2-Copy-2" transform="translate(9.000000, 9.000000)" fill="#FFFFFF">
                            <path d="M14.9830322,11.7725014 C17.6723226,9.08297982 17.6723226,4.70666285 14.9830322,2.01714122 C12.293468,-0.672380407 7.91708183,-0.672380407 5.22779147,2.01714122 C2.94601914,4.29887745 2.60052217,7.69245695 4.1899999,10.3421379 C4.1899999,10.3421379 4.30418436,10.5338798 4.15015856,10.6879032 C3.27015786,11.5676162 0.630566494,14.2071658 0.630566494,14.2071658 C-0.0698059037,14.9077324 -0.236632952,15.8869787 0.38453596,16.5084116 L0.491532544,16.6154065 C1.11270146,17.2365656 2.09216859,17.0699465 2.79281481,16.3693799 C2.79281481,16.3693799 5.42672434,13.7354436 6.30467137,12.8575789 C6.46643268,12.6958201 6.65790385,12.8100028 6.65790385,12.8100028 C9.3076267,14.3997292 12.7012599,14.0542377 14.9830322,11.7725014 Z M6.50120828,10.498831 C4.51386481,8.51151894 4.51386481,5.27812373 6.50120828,3.29074324 C8.48855175,1.30370503 11.7219981,1.30370503 13.7094101,3.29074324 C15.6967535,5.27812373 15.6967535,8.51151894 13.7094101,10.498831 C11.7219981,12.486143 8.48855175,12.486143 6.50120828,10.498831 Z" id="Fill-1"></path>
                            <path d="M6.87291636,6.95454545 C6.78309633,6.95454545 6.69194661,6.93572825 6.60392165,6.8960346 C6.25222072,6.73711798 6.087872,6.3038252 6.23666343,5.92826219 C7.17189539,3.56723552 9.73126765,2.45943471 11.9415983,3.45852179 C12.2932328,3.61743841 12.4575815,4.05073118 12.3087901,4.42629419 C12.1599986,4.8018572 11.7543126,4.97746078 11.4024122,4.81875718 C9.89435317,4.13700629 8.14808157,4.89310289 7.50996709,6.50385564 C7.39860621,6.78533263 7.14250942,6.95454545 6.87291636,6.95454545 Z" id="Fill-4"></path>
                        </g>
                    </g>
                </g>
            </g>
        </g>
    </g>
</svg>