<?xml version="1.0" encoding="UTF-8"?>
<svg width="18px" height="18px" viewBox="0 0 18 18" version="1.1" xmlns="http://www.w3.org/2000/svg" xmlns:xlink="http://www.w3.org/1999/xlink">
    <!-- Generator: Sketch 52.6 (67491) - http://www.bohemiancoding.com/sketch -->
    <title>Fill 1</title>
    <desc>Created with Sketch.</desc>
    <g id="Landing" stroke="none" stroke-width="1" fill="none" fill-rule="evenodd">
        <g id="Landing.-Jan2019" transform="translate(-1047.000000, -108.000000)" fill="#FFFFFF">
            <g id="Group" transform="translate(1047.000000, 101.000000)">
                <g id="Group-8">
                    <g id="Group-10">
                        <g id="Group-6">
                            <path d="M10.9706548,13.1052216 C10.9706548,13.9663399 10.3422712,14.490188 9.88317751,14.8746579 C9.70922568,15.0202831 9.38574486,15.2859901 9.38657983,15.385179 C9.38985013,15.7742995 9.07590187,16.0852628 8.68562354,16.0852628 L8.67991792,16.0852628 C8.29235325,16.0852628 7.97652631,15.7840171 7.97353434,15.3965625 C7.96727207,14.6333144 8.52551828,14.1761706 8.97452274,13.8000995 C9.32653166,13.5051009 9.55753969,13.2976995 9.55753969,13.107651 C9.55753969,12.7231811 9.24386975,12.410552 8.85846208,12.410552 C8.47277609,12.410552 8.15917573,12.7231811 8.15917573,13.107651 C8.15917573,13.4969798 7.84279214,13.8125935 7.45244424,13.8125935 C7.06244424,13.8125935 6.74606066,13.4969798 6.74606066,13.107651 C6.74606066,11.9458424 7.69354148,11.0005975 8.85818376,11.0005975 C10.0231739,11.0005975 10.9706548,11.9431354 10.9706548,13.1052216 Z M8.69947011,16.735995 C8.30919179,16.735995 8.0083247,17.0516088 8.0083247,17.4410069 L8.0083247,17.446421 C8.0083247,17.8354721 8.30919179,18.1483789 8.69947011,18.1483789 C9.08953969,18.1483789 9.40592328,17.8303357 9.40592328,17.4410069 C9.40592328,17.0516088 9.08981801,16.735995 8.69947011,16.735995 Z M17.6656432,10.3875557 L17.6656432,18.3216298 C17.6656432,20.2001115 16.155463,21.7243866 14.2724692,21.7243866 L5.10847814,21.7243866 C4.92937734,21.7243866 4.78179661,21.7236231 4.65836039,21.720916 C4.52928813,21.718209 4.38358608,21.717376 4.32673862,21.7236231 C4.26780374,21.7626323 4.12265834,21.8952081 3.98321855,22.0234805 C3.92776271,22.0742202 3.86500089,22.1303047 3.79757716,22.1918726 L1.20485995,24.5491544 C0.998066012,24.7373288 0.691980374,24.786125 0.435923282,24.6733314 C0.179935772,24.5608155 0,24.3078108 0,24.0285686 L0,16.5551782 L0,15.1455013 L0,10.3875557 C0,8.50886578 1.56118287,7 3.44452453,7 L14.2724692,7 C16.155463,7 17.6656432,8.50886578 17.6656432,10.3875557 Z M16.2522498,10.3875557 C16.2522498,9.28620444 15.3762284,8.40988507 14.2724692,8.40988507 L3.44452453,8.40988507 C2.34048706,8.40988507 1.41332382,9.28620444 1.41332382,10.3875557 L1.41332382,22.4307173 L2.83402319,21.1501458 C2.89984656,21.0902437 2.97346298,21.0352004 3.02731846,20.9858489 C3.6760892,20.389327 3.84190009,20.294164 4.6882801,20.3115168 C4.8035058,20.3139462 4.9410669,20.3147792 5.10847814,20.3147792 L14.2724692,20.3147792 C15.3762284,20.3147792 16.2522498,19.422981 16.2522498,18.3216298 L16.2522498,10.3875557 Z" id="Fill-1"></path>
                        </g>
                    </g>
                </g>
            </g>
        </g>
    </g>
</svg>