<?xml version="1.0" encoding="UTF-8"?>
<svg width="28px" height="28px" viewBox="0 0 28 28" version="1.1" xmlns="http://www.w3.org/2000/svg" xmlns:xlink="http://www.w3.org/1999/xlink">
    <!-- Generator: Sketch 52.6 (67491) - http://www.bohemiancoding.com/sketch -->
    <title>Group 4</title>
    <desc>Created with Sketch.</desc>
    <g id="Landing" stroke="none" stroke-width="1" fill="none" fill-rule="evenodd">
        <g id="Landing.-Jan2019" transform="translate(-156.000000, -12.000000)">
            <g id="Group-3" transform="translate(156.000000, 11.000000)">
                <g id="Group-2">
                    <g id="Group-4" transform="translate(0.000000, 1.000000)">
                        <g id="Group">
                            <path d="M20.4602794,28 L7.37664756,28 C3.50157593,28 0.35984957,24.7963112 0.35984957,20.8448137 L0.35984957,7.50314098 C0.35984957,3.55241052 3.50157593,0.348721695 7.37664756,0.348721695 L20.4602794,0.348721695 C24.3345989,0.348721695 27.4763252,3.55241052 27.4763252,7.50314098 L27.4763252,20.8448137 C27.4763252,24.7963112 24.3345989,28 20.4602794,28" id="Fill-12" fill="#22AFC6"></path>
                            <path d="M22.1766834,21.6907962 L19.9187321,19.3875457 L19.9826648,19.3146822 L20.0932307,19.1957999 L20.2180874,19.0385683 L20.3707736,18.8567933 L20.4625358,18.7271731 L20.5106734,18.6658145 L20.5648281,18.597553 L20.5708453,18.5875822 L20.6490688,18.4656318 L20.6535817,18.460263 C20.7039756,18.3843316 20.7581304,18.3130022 20.8077722,18.2355369 L20.9093123,18.0583638 C20.9724928,17.9532871 21.0334169,17.8482104 21.0920845,17.7400657 L21.144735,17.6487947 L21.1883596,17.5728634 L21.1921203,17.5628926 L21.2756089,17.3772827 C21.3402937,17.2422936 21.4019699,17.1065376 21.4598854,16.9669467 C21.5087751,16.8488313 21.5546562,16.7291819 21.599033,16.6079985 C21.6471705,16.4714755 21.6938037,16.3341855 21.7366762,16.1938276 C21.7765401,16.0634405 21.811139,15.9315194 21.8442335,15.7988313 C21.8637894,15.719832 21.8901146,15.6446676 21.9081662,15.5641344 L21.9194484,15.4636596 C21.993159,15.1054785 22.0525788,14.7426954 22.078904,14.3714755 L22.073639,14.211943 L22.0826648,14.1252739 L22.0826648,14.1245069 C22.0826648,13.2148649 21.3590974,12.47626 20.4662966,12.47626 L17.3719556,12.47626 C16.4799069,12.47626 15.7555874,13.2148649 15.7555874,14.1245069 L15.7555874,14.1252739 C15.7555874,15.034916 16.4799069,15.7735208 17.3719556,15.7735208 L18.454298,15.7735208 C18.4204513,15.8494522 18.3858524,15.9253835 18.348245,16.0005478 C18.312894,16.0718773 18.277543,16.1424397 18.2391834,16.2114682 L18.1639685,16.3418554 C18.0955229,16.4553689 18.0225645,16.5665814 17.9450931,16.6731921 L17.8946991,16.7445215 L17.7563037,16.9201607 L17.6389685,17.0589847 L17.611139,17.091198 L17.5592407,17.1464207 L17.4734957,17.2369248 L17.2899713,17.4148649 L17.1433023,17.544485 C17.076361,17.6012418 17.0079155,17.6556976 16.9387178,17.7078524 L16.7416547,17.8505113 L16.5656519,17.9647918 C16.4851719,18.0138787 16.4031877,18.0621987 16.3212034,18.1066837 L16.2399713,18.1481008 L16.1060888,18.2148283 L15.930086,18.2945946 L15.8827006,18.3153031 C15.7954513,18.3513514 15.7059456,18.3827977 15.6156877,18.415011 L15.5886103,18.4242148 L15.4223854,18.4771366 C15.339649,18.5016801 15.2569126,18.5239226 15.1741762,18.5430972 C15.0967049,18.5622717 15.0177292,18.5776114 14.9402579,18.593718 L14.9011461,18.6006209 L14.7349212,18.6274653 C14.6589542,18.6382031 14.5829871,18.6451059 14.5085244,18.6520088 C14.4400788,18.6581446 14.3716332,18.6650475 14.3024355,18.6681154 L14.3016834,18.6681154 L14.198639,18.6704164 L14.0940903,18.6719503 C14.0083453,18.6719503 13.9218481,18.6696494 13.835351,18.6658145 L13.6450573,18.6520088 C13.5510387,18.642038 13.4577722,18.6313002 13.36601,18.6167275 L13.1885029,18.5852812 C13.0974928,18.5676406 13.0079871,18.5476991 12.9192335,18.5246896 C12.8342407,18.503214 12.75,18.4794375 12.6672636,18.4541271 L12.5220989,18.4050402 C12.4152937,18.367458 12.3114971,18.3275749 12.2084527,18.2830898 L12.1836318,18.2715851 L12.0016117,18.18645 L11.861712,18.1151205 L11.7819842,18.0721695 C11.7,18.0269175 11.6217765,17.9793645 11.543553,17.9295106 L11.3494986,17.7991234 L11.1704871,17.6656684 L10.9749284,17.5038349 L10.9358166,17.4693207 L10.8004298,17.3450694 L10.6612822,17.2047115 L10.5725287,17.1103725 L10.4845272,17.0114317 L10.4393983,16.9585099 L10.3566619,16.8557341 L10.2821991,16.7575603 L10.2062321,16.6555515 L10.1317693,16.5481738 L10.054298,16.4292915 L10.0475287,16.4185537 L9.94222779,16.2406136 L9.89484241,16.1562454 L9.82489255,16.0243243 C9.77750716,15.9292184 9.73313037,15.8325785 9.69101003,15.7336377 L9.63459885,15.5940467 C9.6,15.5081446 9.56916189,15.4207085 9.54058023,15.3317385 C9.51350287,15.2496713 9.4894341,15.1676041 9.46762178,15.0847699 L9.42249284,14.9075968 C9.40068052,14.8132579 9.38187679,14.7181519 9.36532951,14.623046 L9.3405086,14.4650475 C9.32621777,14.3653397 9.31643983,14.2663988 9.30891834,14.165924 L9.29838825,14.0017896 C9.29312321,13.9066837 9.29312321,13.8123448 9.29387536,13.7172389 L9.29613181,13.6474434 L9.2991404,13.5316289 C9.3036533,13.4426589 9.31117479,13.3544558 9.32020057,13.2654858 L9.33825215,13.1212929 L9.34276504,13.0814098 L9.36833811,12.9310811 L9.39240688,12.7922571 L9.40820201,12.7255296 L9.43302292,12.615084 L9.4864255,12.4172023 L9.51124642,12.3251644 L9.58044413,12.1196129 L9.61203438,12.0367787 L9.6737106,11.8772462 C9.70605301,11.7990139 9.74215616,11.7207816 9.77976361,11.6433163 C9.81361032,11.5727538 9.84896132,11.5014244 9.88581662,11.4308619 C9.92568052,11.3587655 9.96780086,11.2882031 10.0091691,11.2184076 C10.0550501,11.1432432 10.1009312,11.0696129 10.1513252,10.9967495 L10.2784384,10.8203433 L10.4333811,10.6247626 L10.4724928,10.5787436 L10.5950931,10.4399196 L10.7289756,10.3010957 L10.8199857,10.2136596 L10.9215258,10.1185537 L10.9749284,10.0717677 L11.0802292,9.98356465 L11.1569484,9.92220599 L11.2795487,9.82863404 L11.3705587,9.76344047 L11.4916547,9.68060628 C11.5593481,9.63612126 11.629298,9.59470416 11.6977436,9.55328707 L11.7458811,9.52567568 L11.8722421,9.45664719 C11.992586,9.39298758 12.1151862,9.33546384 12.240043,9.282542 L12.3633954,9.22962016 C12.4649355,9.19050402 12.5687321,9.15905771 12.6725287,9.12684441 C12.7582736,9.1 12.8425143,9.07162162 12.9282593,9.05014609 C13.0192693,9.02636961 13.1125358,9.01102995 13.2050501,8.99262235 C13.3020774,8.97498174 13.3991046,8.95504018 13.496884,8.94200146 C13.5811246,8.93203068 13.6653653,8.92819576 13.749606,8.92129291 C13.8631805,8.91362308 13.9775072,8.90441928 14.092586,8.90441928 L14.1565186,8.90595325 C14.4325573,8.90978817 14.7093481,8.94506939 14.9853868,8.99875822 C15.1057307,9.02176771 15.2260745,9.04631118 15.344914,9.07929145 L15.5224212,9.13528123 C15.6359957,9.17132944 15.7495702,9.20891161 15.8616404,9.25493061 C15.935351,9.28484295 16.0083095,9.32012418 16.0820201,9.35463842 C16.3648281,9.48655953 16.6408668,9.64072316 16.9018625,9.83476991 C17.6216691,10.3678232 18.6295487,10.2067568 19.1537966,9.47275383 C19.6780444,8.73875091 19.5178367,7.71022644 18.7987822,7.17640614 C18.5001791,6.95551497 18.1887894,6.76760409 17.8721347,6.5934989 L17.7939112,6.54134405 C17.7247135,6.50452885 17.6525072,6.47768444 17.5833095,6.4431702 C17.4584527,6.38104456 17.3320917,6.32121987 17.2049785,6.26676406 C17.0741046,6.2100073 16.9409742,6.15785245 16.808596,6.10953251 C16.692765,6.06658145 16.5769341,6.02593134 16.4595989,5.98911614 C16.3144341,5.94309715 16.1685172,5.90244704 16.0218481,5.86563185 L15.8518625,5.81731191 L15.8247851,5.80734112 C15.7555874,5.79123448 15.6863897,5.78279766 15.6164398,5.77129291 C15.5156519,5.75135135 15.4133596,5.73294375 15.3110673,5.71760409 L15.1155086,5.68308985 L14.9364971,5.67081812 C14.8515043,5.66084733 14.7672636,5.64474069 14.6822708,5.63783784 L14.6544413,5.63323594 C14.5416189,5.62479912 14.4287966,5.62633309 14.3167264,5.62556611 C14.2302292,5.62249817 14.1429799,5.61866326 14.0564828,5.61943024 L13.9353868,5.61636231 C13.8293338,5.61789627 13.7255372,5.63476991 13.6194842,5.64090577 C13.4442335,5.65087655 13.2689828,5.66008035 13.0944842,5.68155588 C12.9312679,5.70226443 12.7718123,5.73601169 12.6108524,5.76669102 C12.4686963,5.79353543 12.3250358,5.81807889 12.1836318,5.85336012 C12.0001074,5.89937911 11.821096,5.95766983 11.6405802,6.01672754 C11.5518266,6.0458729 11.4600645,6.06581446 11.372063,6.09802776 L11.3344556,6.11029949 L11.2434456,6.14941563 C11.1554441,6.18392988 11.0681948,6.223813 10.9801934,6.26139518 L10.7808739,6.34653031 L10.5808023,6.43780131 L10.3912607,6.54134405 L10.2919771,6.58889701 L10.2573782,6.60577064 L10.0911533,6.70931337 C10.0144341,6.75149744 9.9392192,6.79368152 9.86475645,6.83970051 L9.78126791,6.88878744 L9.64813754,6.98466034 L9.55863181,7.04295106 L9.39315903,7.16720234 L9.21189112,7.29835646 L9.05619628,7.42951059 L8.90802292,7.547626 L8.83280802,7.60898466 L8.71020774,7.72710007 L8.6222063,7.80456538 L8.47403295,7.95719503 L8.32886819,8.09908692 L8.2506447,8.18728999 L8.23710602,8.20262966 L8.08517192,8.36523009 L7.97987106,8.49791819 L7.81891117,8.68813002 L7.7226361,8.82235208 L7.64516476,8.92052593 L7.59853152,8.97881665 L7.59025788,8.99262235 L7.50827364,9.11994156 L7.49398281,9.13911614 L7.36762178,9.32319211 L7.27209885,9.48962747 L7.17507163,9.64072316 L7.14724212,9.68597516 L7.06450573,9.84780862 L7.01260745,9.93754565 L6.975,10.0027392 L6.96823066,10.0188459 L6.88775072,10.1983199 L6.83735673,10.2972608 L6.77492837,10.423813 L6.70873926,10.5948503 L6.65157593,10.7214025 L6.63051576,10.7704894 C6.60419054,10.8387509 6.58463467,10.9100804 6.55981375,10.9791088 C6.53273639,11.0496713 6.50415473,11.1194668 6.48083811,11.1915632 L6.43796562,11.3434259 L6.4116404,11.4224251 L6.36801576,11.5566472 C6.34695559,11.6364134 6.33191261,11.7177137 6.31310888,11.7990139 L6.26797994,11.9685172 L6.25669771,12.0107012 L6.22886819,12.1748356 L6.1890043,12.3589116 C6.17696991,12.431008 6.16869628,12.5054054 6.16042264,12.5782688 L6.13409742,12.7362673 L6.11980659,12.9057706 C6.1092765,12.9901388 6.09648997,13.0752739 6.08972063,13.1596421 L6.08520774,13.2033601 L6.08069484,13.3951059 L6.07317335,13.483309 L6.0724212,13.4963477 L6.07467765,13.6750548 C6.0724212,13.7624909 6.06640401,13.8514609 6.06866046,13.938897 L6.0784384,14.1007305 C6.08295129,14.2318846 6.09272923,14.3630387 6.10401146,14.4941928 L6.11679799,14.6874726 L6.11755014,14.7005113 L6.14237106,14.8623448 C6.15891834,14.987363 6.17772206,15.1123813 6.20103868,15.2358656 C6.2258596,15.3769905 6.25368911,15.5165814 6.28527937,15.6554054 C6.30784384,15.7543462 6.33341691,15.8525201 6.36049427,15.9506939 C6.40186246,16.1071585 6.4484957,16.2628561 6.49964183,16.4162527 L6.53424069,16.5289993 L6.55605301,16.5964938 L6.62299427,16.7606282 C6.66586676,16.8703068 6.71024355,16.9799854 6.75687679,17.087363 L6.77568052,17.132615 C6.80952722,17.2108473 6.84111748,17.2898466 6.87797278,17.3665449 L6.96296562,17.5276114 L7.01110315,17.6311541 L7.04269341,17.6948137 L7.15476361,17.8850256 C7.19387536,17.955588 7.23148281,18.0276844 7.27360315,18.0967129 L7.31722779,18.1741782 L7.40974212,18.3091673 L7.47141834,18.4073411 L7.59552292,18.5768444 L7.71661891,18.7532505 L7.86253582,18.9327246 L7.96783668,19.0707816 L8.02274355,19.1405771 L8.12654011,19.2525566 L8.20777221,19.3484295 L8.36647564,19.507962 L8.50186246,19.6536888 L8.59061605,19.734989 L8.62145415,19.7656684 L8.75157593,19.8937546 C8.82378223,19.9589481 8.90125358,20.0195398 8.97496418,20.0824324 L9.07274355,20.1683346 L9.10809456,20.195179 C9.29613181,20.3462747 9.4894341,20.4920015 9.68950573,20.6254565 L9.69025788,20.6262235 L9.73689112,20.6553689 C9.87829513,20.7481738 10.0227077,20.8394449 10.1701289,20.923046 C10.3461318,21.0235208 10.5243911,21.1170928 10.7064112,21.2029949 L10.756053,21.2290723 C10.8237464,21.2605186 10.8952006,21.2858291 10.9651504,21.3142075 C11.134384,21.3870709 11.3073782,21.4545654 11.4818768,21.515157 C11.558596,21.5427684 11.6353152,21.5696129 11.7120344,21.5949233 L11.7819842,21.6179328 L11.8647206,21.6463112 L12.0174069,21.6838934 C12.0933739,21.7053689 12.1670845,21.7314463 12.2438037,21.7506209 L12.3393266,21.7674945 L12.3400788,21.7682615 L12.3415831,21.7682615 C12.4145415,21.7851351 12.4890043,21.792038 12.5619628,21.8066107 C12.7026146,21.836523 12.8455229,21.8602995 12.9876791,21.881775 L13.0974928,21.9009496 L13.1877507,21.9086194 C13.2629656,21.9178232 13.3359241,21.9323959 13.4118911,21.9385318 L13.5089183,21.9423667 L13.5119269,21.9423667 L13.673639,21.9462016 L13.8413682,21.9592403 C13.9226003,21.9615413 14.0045845,21.9577064 14.0850645,21.9561724 L14.2768625,21.9600073 L14.4385745,21.9500365 L14.5875,21.9462016 L14.7853152,21.9247261 C14.8635387,21.9185902 14.9432665,21.9155223 15.02149,21.9063185 L15.1756805,21.881008 L15.2441261,21.8733382 L15.3313754,21.8633674 L15.3486748,21.8602995 L15.501361,21.8273192 L15.5021132,21.8273192 C15.587106,21.8119795 15.6736032,21.7997078 15.7578438,21.7813002 L15.9165473,21.7391161 L16.0037966,21.7207085 L16.1361748,21.6907962 L16.3181948,21.6317385 L16.3964183,21.6110299 L16.4829155,21.5887874 L16.4987106,21.5818846 L16.6393625,21.5297297 C16.7326289,21.4982834 16.8266476,21.469905 16.9176576,21.4353908 L17.0944126,21.3586925 L17.126755,21.3464207 L17.227543,21.3065376 L19.8901504,24.0224251 C20.5219556,24.665924 21.5456304,24.665924 22.1766834,24.0224251 C22.8084885,23.3781592 22.8084885,22.3342951 22.1766834,21.6907962" id="Fill-14" fill="#FFFFFE"></path>
                        </g>
                    </g>
                </g>
            </g>
        </g>
    </g>
</svg>